<?xml version="1.0" encoding="UTF-8"?>
<!DOCTYPE svg PUBLIC "-//W3C//DTD SVG 1.1//EN" "http://www.w3.org/Graphics/SVG/1.1/DTD/svg11.dtd">
<!-- Creator: CorelDRAW X8 -->
<svg xmlns="http://www.w3.org/2000/svg" xml:space="preserve" width="76.8615mm" height="22.4121mm" version="1.1" style="shape-rendering:geometricPrecision; text-rendering:geometricPrecision; image-rendering:optimizeQuality; fill-rule:evenodd; clip-rule:evenodd"
viewBox="0 0 13411 3910"
 xmlns:xlink="http://www.w3.org/1999/xlink">
 <defs>
  <style type="text/css">
   <![CDATA[
    .fil1 {fill:#3A3A3A}
    .fil0 {fill:#5C5E5D}
    .fil2 {fill:#FDFDFD}
   ]]>
  </style>
 </defs>
 <g id="Capa_x0020_1">
  <metadata id="CorelCorpID_0Corel-Layer"/>
  <g id="_519822032">
   <path class="fil0" d="M4754 3910l1910 0c-3,-159 21,-324 16,-475 -6,-199 -122,-175 -211,-289 -162,-207 70,-2316 419,-2586 64,21 38,1 78,43 157,67 520,483 638,604l929 935c70,69 80,67 87,196l-6 1572 43 0 -7 -3902 -3896 -8 0 3910z"/>
   <path class="fil0" d="M0 3910l1851 0c-21,-316 -1,-659 -4,-979 -4,-364 -310,-330 -356,-597 -17,-97 106,-1664 136,-1764 92,116 -4,429 72,562 56,-223 -9,-342 1,-558l109 98c2,-85 -22,-102 54,-101 39,28 44,40 79,65 65,49 9,17 86,53l24 -112c61,111 1,214 60,317 37,-142 27,-161 -6,-302 164,113 48,181 106,418 4,-6 8,-16 10,-21 60,-190 -23,-220 49,-414l52 153 26 -145c86,132 1006,1030 1199,1227 363,371 310,191 308,886 -1,404 -5,810 -3,1214l47 0 -3 -3909 -3897 -1 0 3910z"/>
   <path class="fil0" d="M9509 3910l1845 0c-43,-494 140,-1095 -85,-1254 -293,-207 -529,-364 -513,-879 13,-400 145,-817 354,-1037 446,-471 720,122 843,197 51,-21 139,105 250,218l839 847c315,320 331,183 330,783 0,375 -1,750 -3,1125l42 0 -6 -3903 -3896 -7 0 3910z"/>
   <path class="fil1" d="M2323 728c-50,360 165,1479 48,1702 -137,261 -324,107 -321,561 2,270 23,663 -9,919l1812 0c-2,-404 2,-810 3,-1214 2,-695 55,-515 -308,-886 -193,-197 -1113,-1095 -1199,-1227l-26 145z"/>
   <path class="fil1" d="M6913 3910l1701 0 6 -1572c-7,-129 -17,-127 -87,-196l-929 -935c-118,-121 -481,-537 -638,-604 57,360 -17,1872 -13,2478 3,338 -30,222 -46,386 -14,139 23,286 6,443z"/>
   <path class="fil1" d="M11554 3910l1815 0c2,-375 3,-750 3,-1125 1,-600 -15,-463 -330,-783l-839 -847c-111,-113 -199,-239 -250,-218 11,107 82,222 119,350 117,399 155,863 -141,1136 -186,172 -394,206 -388,568 5,263 44,674 11,919z"/>
   <path class="fil2" d="M11354 3910l200 0c33,-245 -6,-656 -11,-919 -6,-362 202,-396 388,-568 296,-273 258,-737 141,-1136 -15,-51 -35,-100 -54,-147 -72,-172 -35,-153 -155,-296 -148,-175 -395,-482 -753,-104 -209,220 -341,637 -354,1037 -16,515 220,672 513,879 225,159 42,760 85,1254z"/>
   <path class="fil2" d="M1851 3910l190 0c32,-256 11,-649 9,-919 -3,-454 184,-300 321,-561 95,-181 -12,-951 -52,-1427 -9,-104 10,-212 -21,-347l-27 -81c-12,31 -19,58 -24,81 -5,24 -7,45 -7,65 -4,131 -26,253 -11,380 20,159 -5,340 -7,499 -3,203 27,472 -59,545 -79,-119 -63,-1147 -81,-1457 -3,-36 -9,-73 -30,-111l-24 112 -30 1298c-3,36 -2,46 -11,81 -18,77 8,14 -31,59 -75,-43 -44,-5 -49,-139l-44 -1417c-76,-1 -52,16 -54,101l-35 1374c-14,113 21,47 -49,104 -51,-85 -65,-564 -47,-845 12,-193 0,-384 -9,-580 -3,-63 -13,-119 -42,-155 -30,100 -153,1667 -136,1764 46,267 352,233 356,597 3,320 -17,663 4,979z"/>
   <path class="fil2" d="M6664 3910l249 0c17,-157 -20,-304 -6,-443 16,-164 49,-48 46,-386 -4,-606 70,-2118 13,-2478 -40,-42 -14,-22 -78,-43 -349,270 -581,2379 -419,2586 89,114 205,90 211,289 5,151 -19,316 -16,475z"/>
   <path class="fil1" d="M2028 689c-77,-36 -21,-4 -86,-53 -35,-25 -40,-37 -79,-65l44 1417c5,134 -26,96 49,139 39,-45 13,18 31,-59 9,-35 8,-45 11,-81l30 -1298z"/>
   <path class="fil1" d="M2112 894c-18,69 -36,1121 51,1251 86,-73 56,-342 59,-545 2,-191 38,-411 -10,-590 -58,-237 58,-305 -106,-418 33,141 43,160 6,302z"/>
   <path class="fil1" d="M1699 1132c-43,161 -40,910 26,1018 70,-57 35,9 49,-104l35 -1374 -109 -98c-10,216 55,335 -1,558z"/>
  </g>
 </g>
</svg>
